<mxfile host="65bd71144e">
    <diagram id="SllosVhSyp8R4pmgDFGr" name="Arquitetura_Itau">
        <mxGraphModel dx="1618" dy="694" grid="1" gridSize="10" guides="1" tooltips="1" connect="1" arrows="1" fold="1" page="1" pageScale="1" pageWidth="827" pageHeight="1169" background="none" math="0" shadow="0">
            <root>
                <mxCell id="0"/>
                <mxCell id="1" parent="0"/>
                <mxCell id="2" value="Governance" style="rounded=1;whiteSpace=wrap;html=1;labelBackgroundColor=#FFFFFF;fillColor=#FFFFFF;fontColor=#000000;align=center;verticalAlign=top;fontSize=26;arcSize=7;" parent="1" vertex="1">
                    <mxGeometry x="40" y="473" width="410" height="147" as="geometry"/>
                </mxCell>
                <mxCell id="3" value="Log Analytics &amp;amp; AI" style="rounded=1;whiteSpace=wrap;html=1;labelBackgroundColor=#FFFFFF;fillColor=#FFFFFF;fontColor=#000000;align=center;verticalAlign=top;fontSize=26;arcSize=7;" parent="1" vertex="1">
                    <mxGeometry x="40" y="630" width="410" height="147" as="geometry"/>
                </mxCell>
                <mxCell id="4" value="DevSecops" style="rounded=1;whiteSpace=wrap;html=1;labelBackgroundColor=#FFFFFF;fillColor=#FFFFFF;fontColor=#000000;align=center;verticalAlign=top;fontSize=26;arcSize=7;" parent="1" vertex="1">
                    <mxGeometry x="462.5" y="630" width="595" height="147" as="geometry"/>
                </mxCell>
                <mxCell id="5" value="Account Management" style="rounded=1;whiteSpace=wrap;html=1;labelBackgroundColor=#FFFFFF;fillColor=#FFFFFF;fontColor=#000000;align=center;verticalAlign=top;fontSize=26;arcSize=4;" parent="1" vertex="1">
                    <mxGeometry x="40" y="250" width="410" height="210" as="geometry"/>
                </mxCell>
                <mxCell id="6" value="Finops" style="rounded=1;whiteSpace=wrap;html=1;labelBackgroundColor=#FFFFFF;fillColor=#FFFFFF;fontColor=#000000;align=center;verticalAlign=top;fontSize=26;arcSize=7;" parent="1" vertex="1">
                    <mxGeometry x="463" y="473" width="595" height="147" as="geometry"/>
                </mxCell>
                <mxCell id="7" value="Network Sec" style="rounded=1;whiteSpace=wrap;html=1;labelBackgroundColor=#FFFFFF;fillColor=#FFFFFF;fontColor=#000000;align=center;verticalAlign=top;fontSize=24;arcSize=4;" parent="1" vertex="1">
                    <mxGeometry x="462.5" y="250" width="595" height="210" as="geometry"/>
                </mxCell>
                <mxCell id="8" value="" style="group;movable=0;resizable=0;rotatable=0;deletable=0;editable=0;connectable=0;" parent="1" vertex="1" connectable="0">
                    <mxGeometry x="340" y="130" width="200" height="290" as="geometry"/>
                </mxCell>
                <mxCell id="9" value="" style="group;align=center;horizontal=1;" parent="1" vertex="1" connectable="0">
                    <mxGeometry x="365" y="80" width="160" height="40" as="geometry"/>
                </mxCell>
                <mxCell id="10" value="GestÃ£o de AMI" style="rounded=1;whiteSpace=wrap;html=1;labelBackgroundColor=#FFFFFF;fontColor=#000000;align=center;verticalAlign=bottom;" parent="9" vertex="1">
                    <mxGeometry width="160" height="40" as="geometry"/>
                </mxCell>
                <mxCell id="11" value="" style="ellipse;whiteSpace=wrap;html=1;aspect=fixed;labelBackgroundColor=#FFFFFF;fillColor=#B3B3B3;strokeColor=#36393d;" parent="9" vertex="1">
                    <mxGeometry x="2" y="2" width="10" height="10" as="geometry"/>
                </mxCell>
                <mxCell id="12" value="" style="group" parent="1" vertex="1" connectable="0">
                    <mxGeometry x="365" y="180" width="160" height="40" as="geometry"/>
                </mxCell>
                <mxCell id="13" value="Service Control Policies" style="rounded=1;whiteSpace=wrap;html=1;labelBackgroundColor=#FFFFFF;fontColor=#000000;verticalAlign=bottom;" parent="12" vertex="1">
                    <mxGeometry width="160" height="40" as="geometry"/>
                </mxCell>
                <mxCell id="14" value="" style="ellipse;whiteSpace=wrap;html=1;aspect=fixed;labelBackgroundColor=#FFFFFF;fillColor=#B3B3B3;strokeColor=#36393d;" parent="12" vertex="1">
                    <mxGeometry x="2" y="2" width="10" height="10" as="geometry"/>
                </mxCell>
                <mxCell id="15" value="" style="group;verticalAlign=bottom;" parent="1" vertex="1" connectable="0">
                    <mxGeometry x="890" y="80" width="160" height="40" as="geometry"/>
                </mxCell>
                <mxCell id="16" value="Certificate Management" style="rounded=1;whiteSpace=wrap;html=1;labelBackgroundColor=#FFFFFF;fontColor=#000000;verticalAlign=bottom;" parent="15" vertex="1">
                    <mxGeometry width="160" height="40" as="geometry"/>
                </mxCell>
                <mxCell id="17" value="" style="ellipse;whiteSpace=wrap;html=1;aspect=fixed;labelBackgroundColor=#FFFFFF;fillColor=#B3B3B3;strokeColor=#36393d;" parent="15" vertex="1">
                    <mxGeometry x="2" y="2" width="10" height="10" as="geometry"/>
                </mxCell>
                <mxCell id="18" value="" style="group" parent="1" vertex="1" connectable="0">
                    <mxGeometry x="365" y="130" width="160" height="40" as="geometry"/>
                </mxCell>
                <mxCell id="19" value="GuardRail &lt;br&gt;Inspect Remediation" style="rounded=1;whiteSpace=wrap;html=1;labelBackgroundColor=#FFFFFF;fontColor=#000000;verticalAlign=bottom;" parent="18" vertex="1">
                    <mxGeometry width="160" height="40" as="geometry"/>
                </mxCell>
                <mxCell id="20" value="" style="ellipse;whiteSpace=wrap;html=1;aspect=fixed;labelBackgroundColor=#FFFFFF;fillColor=#B3B3B3;strokeColor=#36393d;" parent="18" vertex="1">
                    <mxGeometry x="2" y="2" width="10" height="10" as="geometry"/>
                </mxCell>
                <mxCell id="21" value="" style="group;verticalAlign=bottom;" parent="1" vertex="1" connectable="0">
                    <mxGeometry x="190" y="130" width="160" height="40" as="geometry"/>
                </mxCell>
                <mxCell id="22" value="" style="group" parent="21" vertex="1" connectable="0">
                    <mxGeometry width="160" height="40" as="geometry"/>
                </mxCell>
                <mxCell id="23" value="Parameter Store" style="rounded=1;whiteSpace=wrap;html=1;labelBackgroundColor=#FFFFFF;fontColor=#000000;verticalAlign=bottom;" parent="22" vertex="1">
                    <mxGeometry width="160" height="40" as="geometry"/>
                </mxCell>
                <mxCell id="24" value="" style="ellipse;whiteSpace=wrap;html=1;aspect=fixed;labelBackgroundColor=#FFFFFF;fillColor=#B3B3B3;strokeColor=#36393d;" parent="22" vertex="1">
                    <mxGeometry x="2" y="2" width="10" height="10" as="geometry"/>
                </mxCell>
                <mxCell id="25" value="" style="group;verticalAlign=bottom;" parent="1" vertex="1" connectable="0">
                    <mxGeometry x="699.5" y="180" width="160" height="40" as="geometry"/>
                </mxCell>
                <mxCell id="26" value="IAM Policies" style="rounded=1;whiteSpace=wrap;html=1;labelBackgroundColor=#FFFFFF;fontColor=#000000;verticalAlign=bottom;" parent="25" vertex="1">
                    <mxGeometry width="160" height="40" as="geometry"/>
                </mxCell>
                <mxCell id="27" value="" style="ellipse;whiteSpace=wrap;html=1;aspect=fixed;labelBackgroundColor=#FFFFFF;fillColor=#B3B3B3;strokeColor=#36393d;" parent="25" vertex="1">
                    <mxGeometry x="2" y="2" width="10" height="10" as="geometry"/>
                </mxCell>
                <mxCell id="28" value="" style="group;verticalAlign=bottom;" parent="1" vertex="1" connectable="0">
                    <mxGeometry x="699.5" y="130" width="160" height="40" as="geometry"/>
                </mxCell>
                <mxCell id="29" value="IAM Roles Automation" style="rounded=1;whiteSpace=wrap;html=1;labelBackgroundColor=#FFFFFF;fontColor=#000000;verticalAlign=bottom;" parent="28" vertex="1">
                    <mxGeometry width="160" height="40" as="geometry"/>
                </mxCell>
                <mxCell id="30" value="" style="ellipse;whiteSpace=wrap;html=1;aspect=fixed;labelBackgroundColor=#FFFFFF;fillColor=#B3B3B3;strokeColor=#36393d;" parent="28" vertex="1">
                    <mxGeometry x="2" y="2" width="10" height="10" as="geometry"/>
                </mxCell>
                <mxCell id="31" value="" style="group;verticalAlign=bottom;" parent="1" vertex="1" connectable="0">
                    <mxGeometry x="529.5" y="180" width="160" height="40" as="geometry"/>
                </mxCell>
                <mxCell id="32" value="Deny Polcies" style="rounded=1;whiteSpace=wrap;html=1;labelBackgroundColor=#FFFFFF;fontColor=#000000;verticalAlign=bottom;" parent="31" vertex="1">
                    <mxGeometry width="160" height="40" as="geometry"/>
                </mxCell>
                <mxCell id="33" value="" style="ellipse;whiteSpace=wrap;html=1;aspect=fixed;labelBackgroundColor=#FFFFFF;fillColor=#B3B3B3;strokeColor=#36393d;" parent="31" vertex="1">
                    <mxGeometry x="2" y="2" width="10" height="10" as="geometry"/>
                </mxCell>
                <mxCell id="34" style="edgeStyle=orthogonalEdgeStyle;rounded=0;orthogonalLoop=1;jettySize=auto;html=1;exitX=0.5;exitY=1;exitDx=0;exitDy=0;fontSize=32;fontColor=#000000;" parent="31" source="33" target="33" edge="1">
                    <mxGeometry relative="1" as="geometry"/>
                </mxCell>
                <mxCell id="35" value="" style="group;verticalAlign=bottom;" parent="1" vertex="1" connectable="0">
                    <mxGeometry x="529.5" y="130" width="160" height="40" as="geometry"/>
                </mxCell>
                <mxCell id="36" value="IAM AD Groups" style="rounded=1;whiteSpace=wrap;html=1;labelBackgroundColor=#FFFFFF;fontColor=#000000;verticalAlign=bottom;" parent="35" vertex="1">
                    <mxGeometry width="160" height="40" as="geometry"/>
                </mxCell>
                <mxCell id="37" value="" style="ellipse;whiteSpace=wrap;html=1;aspect=fixed;labelBackgroundColor=#FFFFFF;fillColor=#B3B3B3;strokeColor=#36393d;" parent="35" vertex="1">
                    <mxGeometry x="2" y="2" width="10" height="10" as="geometry"/>
                </mxCell>
                <mxCell id="38" value="" style="group" parent="1" vertex="1" connectable="0">
                    <mxGeometry x="529.5" y="80" width="160" height="40" as="geometry"/>
                </mxCell>
                <mxCell id="39" value="" style="group" parent="38" vertex="1" connectable="0">
                    <mxGeometry width="160" height="40" as="geometry"/>
                </mxCell>
                <mxCell id="40" value="SSO Azure AD &amp;amp; MFA" style="rounded=1;whiteSpace=wrap;html=1;labelBackgroundColor=#FFFFFF;fontColor=#000000;verticalAlign=bottom;" parent="39" vertex="1">
                    <mxGeometry width="160" height="40" as="geometry"/>
                </mxCell>
                <mxCell id="41" value="" style="ellipse;whiteSpace=wrap;html=1;aspect=fixed;labelBackgroundColor=#FFFFFF;fillColor=#B3B3B3;strokeColor=#36393d;" parent="39" vertex="1">
                    <mxGeometry x="2" y="2" width="10" height="10" as="geometry"/>
                </mxCell>
                <mxCell id="42" value="" style="group" parent="1" vertex="1" connectable="0">
                    <mxGeometry x="517.5" y="314" width="160" height="40" as="geometry"/>
                </mxCell>
                <mxCell id="43" value="Outbound Internet" style="rounded=1;whiteSpace=wrap;html=1;labelBackgroundColor=#FFFFFF;fontColor=#000000;" parent="42" vertex="1">
                    <mxGeometry width="160" height="40" as="geometry"/>
                </mxCell>
                <mxCell id="44" value="" style="ellipse;whiteSpace=wrap;html=1;aspect=fixed;labelBackgroundColor=#FFFFFF;fillColor=#B3B3B3;strokeColor=#36393d;" parent="42" vertex="1">
                    <mxGeometry x="2" y="2" width="10" height="10" as="geometry"/>
                </mxCell>
                <mxCell id="45" value="" style="group" parent="1" vertex="1" connectable="0">
                    <mxGeometry x="687.5" y="314" width="160" height="40" as="geometry"/>
                </mxCell>
                <mxCell id="46" value="Inbound Internet" style="rounded=1;whiteSpace=wrap;html=1;labelBackgroundColor=#FFFFFF;fontColor=#000000;" parent="45" vertex="1">
                    <mxGeometry width="160" height="40" as="geometry"/>
                </mxCell>
                <mxCell id="47" value="" style="ellipse;whiteSpace=wrap;html=1;aspect=fixed;labelBackgroundColor=#FFFFFF;fillColor=#B3B3B3;strokeColor=#36393d;" parent="45" vertex="1">
                    <mxGeometry x="2" y="2" width="10" height="10" as="geometry"/>
                </mxCell>
                <mxCell id="48" value="" style="group" parent="1" vertex="1" connectable="0">
                    <mxGeometry x="517.5" y="364" width="160" height="40" as="geometry"/>
                </mxCell>
                <mxCell id="49" value="CDN" style="rounded=1;whiteSpace=wrap;html=1;labelBackgroundColor=#FFFFFF;fontColor=#000000;" parent="48" vertex="1">
                    <mxGeometry width="160" height="40" as="geometry"/>
                </mxCell>
                <mxCell id="50" value="" style="ellipse;whiteSpace=wrap;html=1;aspect=fixed;labelBackgroundColor=#FFFFFF;fillColor=#B3B3B3;strokeColor=#36393d;" parent="48" vertex="1">
                    <mxGeometry x="2" y="2" width="10" height="10" as="geometry"/>
                </mxCell>
                <mxCell id="51" value="" style="group" parent="1" vertex="1" connectable="0">
                    <mxGeometry x="687.5" y="364" width="160" height="40" as="geometry"/>
                </mxCell>
                <mxCell id="52" value="Controle CIDR&amp;nbsp;" style="rounded=1;whiteSpace=wrap;html=1;labelBackgroundColor=#FFFFFF;fontColor=#000000;" parent="51" vertex="1">
                    <mxGeometry width="160" height="40" as="geometry"/>
                </mxCell>
                <mxCell id="53" value="" style="ellipse;whiteSpace=wrap;html=1;aspect=fixed;labelBackgroundColor=#FFFFFF;fillColor=#B3B3B3;strokeColor=#36393d;" parent="51" vertex="1">
                    <mxGeometry x="2" y="2" width="10" height="10" as="geometry"/>
                </mxCell>
                <mxCell id="54" value="" style="group" parent="1" vertex="1" connectable="0">
                    <mxGeometry x="687.5" y="414" width="160" height="40" as="geometry"/>
                </mxCell>
                <mxCell id="55" value="Network Services" style="rounded=1;whiteSpace=wrap;html=1;labelBackgroundColor=#FFFFFF;fontColor=#000000;" parent="54" vertex="1">
                    <mxGeometry width="160" height="40" as="geometry"/>
                </mxCell>
                <mxCell id="56" value="" style="ellipse;whiteSpace=wrap;html=1;aspect=fixed;labelBackgroundColor=#FFFFFF;fillColor=#B3B3B3;strokeColor=#36393d;" parent="54" vertex="1">
                    <mxGeometry x="2" y="2" width="10" height="10" as="geometry"/>
                </mxCell>
                <mxCell id="57" value="" style="group" parent="1" vertex="1" connectable="0">
                    <mxGeometry x="867.5" y="314" width="160" height="40" as="geometry"/>
                </mxCell>
                <mxCell id="58" value="DNS Management" style="rounded=1;whiteSpace=wrap;html=1;labelBackgroundColor=#FFFFFF;fontColor=#000000;" parent="57" vertex="1">
                    <mxGeometry width="160" height="40" as="geometry"/>
                </mxCell>
                <mxCell id="59" value="" style="ellipse;whiteSpace=wrap;html=1;aspect=fixed;labelBackgroundColor=#FFFFFF;fillColor=#B3B3B3;strokeColor=#36393d;" parent="57" vertex="1">
                    <mxGeometry x="2" y="2" width="10" height="10" as="geometry"/>
                </mxCell>
                <mxCell id="60" value="" style="group" parent="1" vertex="1" connectable="0">
                    <mxGeometry x="867.5" y="364" width="160" height="40" as="geometry"/>
                </mxCell>
                <mxCell id="61" value="Transit Links" style="rounded=1;whiteSpace=wrap;html=1;labelBackgroundColor=#FFFFFF;fontColor=#000000;" parent="60" vertex="1">
                    <mxGeometry width="160" height="40" as="geometry"/>
                </mxCell>
                <mxCell id="62" value="" style="ellipse;whiteSpace=wrap;html=1;aspect=fixed;labelBackgroundColor=#FFFFFF;fillColor=#B3B3B3;strokeColor=#36393d;" parent="60" vertex="1">
                    <mxGeometry x="2" y="2" width="10" height="10" as="geometry"/>
                </mxCell>
                <mxCell id="63" value="" style="group" parent="1" vertex="1" connectable="0">
                    <mxGeometry x="867.5" y="414" width="160" height="40" as="geometry"/>
                </mxCell>
                <mxCell id="64" value="Services Integration" style="rounded=1;whiteSpace=wrap;html=1;labelBackgroundColor=#FFFFFF;fontColor=#000000;" parent="63" vertex="1">
                    <mxGeometry width="160" height="40" as="geometry"/>
                </mxCell>
                <mxCell id="65" value="" style="ellipse;whiteSpace=wrap;html=1;aspect=fixed;labelBackgroundColor=#FFFFFF;fillColor=#B3B3B3;strokeColor=#36393d;" parent="63" vertex="1">
                    <mxGeometry x="2" y="2" width="10" height="10" as="geometry"/>
                </mxCell>
                <mxCell id="66" value="" style="points=[[0.5,0,0],[1,0.5,0],[0.5,1,0],[0,0.5,0],[0.145,0.145,0],[0.8555,0.145,0],[0.855,0.8555,0],[0.145,0.855,0]];verticalLabelPosition=bottom;html=1;verticalAlign=top;aspect=fixed;align=center;pointerEvents=1;shape=mxgraph.cisco19.rect;prIcon=vmanage;fillColor=#FAFAFA;strokeColor=#005073;labelBackgroundColor=#FFFFFF;fontSize=26;fontColor=#000000;" parent="1" vertex="1">
                    <mxGeometry x="641" y="253" width="38" height="38" as="geometry"/>
                </mxCell>
                <mxCell id="67" value="" style="group" parent="1" vertex="1" connectable="0">
                    <mxGeometry x="515.5" y="540" width="160" height="40" as="geometry"/>
                </mxCell>
                <mxCell id="68" value="Finops Tools" style="rounded=1;whiteSpace=wrap;html=1;labelBackgroundColor=#FFFFFF;fontColor=#000000;" parent="67" vertex="1">
                    <mxGeometry width="160" height="40" as="geometry"/>
                </mxCell>
                <mxCell id="69" value="" style="ellipse;whiteSpace=wrap;html=1;aspect=fixed;labelBackgroundColor=#FFFFFF;fillColor=#B3B3B3;strokeColor=#36393d;" parent="67" vertex="1">
                    <mxGeometry x="2" y="2" width="10" height="10" as="geometry"/>
                </mxCell>
                <mxCell id="70" value="" style="group" parent="1" vertex="1" connectable="0">
                    <mxGeometry x="690.5" y="540" width="160" height="40" as="geometry"/>
                </mxCell>
                <mxCell id="71" value="Billing&amp;nbsp;" style="rounded=1;whiteSpace=wrap;html=1;labelBackgroundColor=#FFFFFF;fontColor=#000000;" parent="70" vertex="1">
                    <mxGeometry width="160" height="40" as="geometry"/>
                </mxCell>
                <mxCell id="72" value="" style="ellipse;whiteSpace=wrap;html=1;aspect=fixed;labelBackgroundColor=#FFFFFF;fillColor=#B3B3B3;strokeColor=#36393d;" parent="70" vertex="1">
                    <mxGeometry x="2" y="2" width="10" height="10" as="geometry"/>
                </mxCell>
                <mxCell id="73" value="" style="group" parent="1" vertex="1" connectable="0">
                    <mxGeometry x="860.5" y="540" width="160" height="40" as="geometry"/>
                </mxCell>
                <mxCell id="74" value="Finops Dashboards" style="rounded=1;whiteSpace=wrap;html=1;labelBackgroundColor=#FFFFFF;fontColor=#000000;" parent="73" vertex="1">
                    <mxGeometry width="160" height="40" as="geometry"/>
                </mxCell>
                <mxCell id="75" value="" style="ellipse;whiteSpace=wrap;html=1;aspect=fixed;labelBackgroundColor=#FFFFFF;fillColor=#B3B3B3;strokeColor=#36393d;" parent="73" vertex="1">
                    <mxGeometry x="2" y="2" width="10" height="10" as="geometry"/>
                </mxCell>
                <mxCell id="76" value="" style="html=1;aspect=fixed;strokeColor=none;shadow=0;align=center;verticalAlign=top;fillColor=#3B8DF1;shape=mxgraph.gcp2.cost_arrows;labelBackgroundColor=#FFFFFF;fontSize=26;fontColor=#000000;" parent="1" vertex="1">
                    <mxGeometry x="692" y="479" width="26" height="34.21" as="geometry"/>
                </mxCell>
                <mxCell id="77" value="" style="group" parent="1" vertex="1" connectable="0">
                    <mxGeometry x="517.5" y="414" width="160" height="40" as="geometry"/>
                </mxCell>
                <mxCell id="78" value="Account Firewall Mngmt" style="rounded=1;whiteSpace=wrap;html=1;labelBackgroundColor=#FFFFFF;fontColor=#000000;" parent="77" vertex="1">
                    <mxGeometry width="160" height="40" as="geometry"/>
                </mxCell>
                <mxCell id="79" value="" style="ellipse;whiteSpace=wrap;html=1;aspect=fixed;labelBackgroundColor=#FFFFFF;fillColor=#B3B3B3;strokeColor=#36393d;" parent="77" vertex="1">
                    <mxGeometry x="2" y="2" width="10" height="10" as="geometry"/>
                </mxCell>
                <mxCell id="80" value="Key Vault" style="rounded=1;whiteSpace=wrap;html=1;labelBackgroundColor=#FFFFFF;fontColor=#000000;" parent="1" vertex="1">
                    <mxGeometry x="890" y="180" width="160" height="40" as="geometry"/>
                </mxCell>
                <mxCell id="81" value="" style="ellipse;whiteSpace=wrap;html=1;aspect=fixed;labelBackgroundColor=#FFFFFF;fillColor=#B3B3B3;strokeColor=#36393d;" parent="1" vertex="1">
                    <mxGeometry x="892" y="182" width="15" height="15" as="geometry"/>
                </mxCell>
                <mxCell id="82" value="" style="group" parent="1" vertex="1" connectable="0">
                    <mxGeometry x="890" y="180" width="160" height="40" as="geometry"/>
                </mxCell>
                <mxCell id="83" value="Key Vault" style="rounded=1;whiteSpace=wrap;html=1;labelBackgroundColor=#FFFFFF;fontColor=#000000;verticalAlign=bottom;" parent="82" vertex="1">
                    <mxGeometry width="160" height="40" as="geometry"/>
                </mxCell>
                <mxCell id="84" value="" style="ellipse;whiteSpace=wrap;html=1;aspect=fixed;labelBackgroundColor=#FFFFFF;fillColor=#B3B3B3;strokeColor=#36393d;" parent="82" vertex="1">
                    <mxGeometry x="2" y="2" width="10" height="10" as="geometry"/>
                </mxCell>
                <mxCell id="85" value="" style="outlineConnect=0;fontColor=#232F3E;gradientColor=none;fillColor=#C7131F;strokeColor=none;dashed=0;verticalLabelPosition=bottom;verticalAlign=top;align=center;html=1;fontSize=12;fontStyle=0;aspect=fixed;pointerEvents=1;shape=mxgraph.aws4.organizations_account;labelBackgroundColor=#FFFFFF;" parent="1" vertex="1">
                    <mxGeometry x="66" y="253" width="44" height="46.38" as="geometry"/>
                </mxCell>
                <mxCell id="86" value="" style="group" parent="1" vertex="1" connectable="0">
                    <mxGeometry x="190" y="80" width="160" height="40" as="geometry"/>
                </mxCell>
                <mxCell id="87" value="Log Audit/Archive" style="rounded=1;whiteSpace=wrap;html=1;labelBackgroundColor=#FFFFFF;fontColor=#000000;verticalAlign=bottom;" parent="86" vertex="1">
                    <mxGeometry width="160" height="40" as="geometry"/>
                </mxCell>
                <mxCell id="88" value="" style="ellipse;whiteSpace=wrap;html=1;aspect=fixed;labelBackgroundColor=#FFFFFF;fillColor=#B3B3B3;strokeColor=#36393d;" parent="86" vertex="1">
                    <mxGeometry x="2" y="2" width="10" height="10" as="geometry"/>
                </mxCell>
                <mxCell id="89" value="" style="group" parent="1" vertex="1" connectable="0">
                    <mxGeometry x="95" y="324" width="160" height="40" as="geometry"/>
                </mxCell>
                <mxCell id="90" value="Organization Account" style="rounded=1;whiteSpace=wrap;html=1;labelBackgroundColor=#FFFFFF;fontColor=#000000;verticalAlign=bottom;" parent="89" vertex="1">
                    <mxGeometry width="160" height="40" as="geometry"/>
                </mxCell>
                <mxCell id="91" value="" style="ellipse;whiteSpace=wrap;html=1;aspect=fixed;labelBackgroundColor=#FFFFFF;fillColor=#B3B3B3;strokeColor=#36393d;" parent="89" vertex="1">
                    <mxGeometry x="2" y="2" width="10" height="10" as="geometry"/>
                </mxCell>
                <mxCell id="92" value="" style="group" parent="1" vertex="1" connectable="0">
                    <mxGeometry x="270" y="324" width="160" height="40" as="geometry"/>
                </mxCell>
                <mxCell id="93" value="Account Management" style="rounded=1;whiteSpace=wrap;html=1;labelBackgroundColor=#FFFFFF;fontColor=#000000;verticalAlign=bottom;" parent="92" vertex="1">
                    <mxGeometry width="160" height="40" as="geometry"/>
                </mxCell>
                <mxCell id="94" value="" style="ellipse;whiteSpace=wrap;html=1;aspect=fixed;labelBackgroundColor=#FFFFFF;fillColor=#B3B3B3;strokeColor=#36393d;" parent="92" vertex="1">
                    <mxGeometry x="2" y="2" width="10" height="10" as="geometry"/>
                </mxCell>
                <mxCell id="95" value="" style="group" parent="1" vertex="1" connectable="0">
                    <mxGeometry x="523.75" y="676" width="160" height="40" as="geometry"/>
                </mxCell>
                <mxCell id="96" value="EDP StacksSpot" style="rounded=1;whiteSpace=wrap;html=1;labelBackgroundColor=#FFFFFF;fontColor=#000000;verticalAlign=bottom;" parent="95" vertex="1">
                    <mxGeometry width="160" height="40" as="geometry"/>
                </mxCell>
                <mxCell id="97" value="" style="ellipse;whiteSpace=wrap;html=1;aspect=fixed;labelBackgroundColor=#FFFFFF;fillColor=#B3B3B3;strokeColor=#36393d;" parent="95" vertex="1">
                    <mxGeometry x="2" y="2" width="10" height="10" as="geometry"/>
                </mxCell>
                <mxCell id="98" value="" style="group" parent="1" vertex="1" connectable="0">
                    <mxGeometry x="694.25" y="676" width="160" height="40" as="geometry"/>
                </mxCell>
                <mxCell id="99" value="IaC Pipeline/Tools" style="rounded=1;whiteSpace=wrap;html=1;labelBackgroundColor=#FFFFFF;fontColor=#000000;verticalAlign=bottom;" parent="98" vertex="1">
                    <mxGeometry width="160" height="40" as="geometry"/>
                </mxCell>
                <mxCell id="100" value="" style="ellipse;whiteSpace=wrap;html=1;aspect=fixed;labelBackgroundColor=#FFFFFF;fillColor=#B3B3B3;strokeColor=#36393d;" parent="98" vertex="1">
                    <mxGeometry x="2" y="2" width="10" height="10" as="geometry"/>
                </mxCell>
                <mxCell id="101" value="" style="group" parent="1" vertex="1" connectable="0">
                    <mxGeometry x="876.25" y="676" width="160" height="40" as="geometry"/>
                </mxCell>
                <mxCell id="102" value="SAST" style="rounded=1;whiteSpace=wrap;html=1;labelBackgroundColor=#FFFFFF;fontColor=#000000;verticalAlign=bottom;" parent="101" vertex="1">
                    <mxGeometry width="160" height="40" as="geometry"/>
                </mxCell>
                <mxCell id="103" value="" style="ellipse;whiteSpace=wrap;html=1;aspect=fixed;labelBackgroundColor=#FFFFFF;fillColor=#B3B3B3;strokeColor=#36393d;" parent="101" vertex="1">
                    <mxGeometry x="2" y="2" width="10" height="10" as="geometry"/>
                </mxCell>
                <mxCell id="104" value="" style="group" parent="1" vertex="1" connectable="0">
                    <mxGeometry x="694.25" y="726" width="160" height="40" as="geometry"/>
                </mxCell>
                <mxCell id="105" value="App Pipeline/Tools" style="rounded=1;whiteSpace=wrap;html=1;labelBackgroundColor=#FFFFFF;fontColor=#000000;verticalAlign=bottom;" parent="104" vertex="1">
                    <mxGeometry width="160" height="40" as="geometry"/>
                </mxCell>
                <mxCell id="106" value="" style="ellipse;whiteSpace=wrap;html=1;aspect=fixed;labelBackgroundColor=#FFFFFF;fillColor=#B3B3B3;strokeColor=#36393d;" parent="104" vertex="1">
                    <mxGeometry x="2" y="2" width="10" height="10" as="geometry"/>
                </mxCell>
                <mxCell id="107" value="" style="group" parent="1" vertex="1" connectable="0">
                    <mxGeometry x="876.25" y="726" width="160" height="40" as="geometry"/>
                </mxCell>
                <mxCell id="108" value="DAST" style="rounded=1;whiteSpace=wrap;html=1;labelBackgroundColor=#FFFFFF;fontColor=#000000;verticalAlign=bottom;" parent="107" vertex="1">
                    <mxGeometry width="160" height="40" as="geometry"/>
                </mxCell>
                <mxCell id="109" value="" style="ellipse;whiteSpace=wrap;html=1;aspect=fixed;labelBackgroundColor=#FFFFFF;fillColor=#B3B3B3;strokeColor=#36393d;" parent="107" vertex="1">
                    <mxGeometry x="2" y="2" width="10" height="10" as="geometry"/>
                </mxCell>
                <mxCell id="110" value="" style="aspect=fixed;html=1;points=[];align=center;image;fontSize=12;image=img/lib/mscae/Azure_Pipelines&#9;.svg;labelBackgroundColor=#FFFFFF;fillColor=#FFFFFF;" parent="1" vertex="1">
                    <mxGeometry x="663.25" y="636" width="31" height="31" as="geometry"/>
                </mxCell>
                <mxCell id="111" value="" style="group" parent="1" vertex="1" connectable="0">
                    <mxGeometry x="890" y="130" width="160" height="40" as="geometry"/>
                </mxCell>
                <mxCell id="112" value="Secrets Management" style="rounded=1;whiteSpace=wrap;html=1;labelBackgroundColor=#FFFFFF;fontColor=#000000;verticalAlign=bottom;" parent="111" vertex="1">
                    <mxGeometry width="160" height="40" as="geometry"/>
                </mxCell>
                <mxCell id="113" value="" style="ellipse;whiteSpace=wrap;html=1;aspect=fixed;labelBackgroundColor=#FFFFFF;fillColor=#B3B3B3;strokeColor=#36393d;" parent="111" vertex="1">
                    <mxGeometry x="2" y="2" width="10" height="10" as="geometry"/>
                </mxCell>
                <mxCell id="114" value="" style="group" parent="1" vertex="1" connectable="0">
                    <mxGeometry x="251" y="726" width="160" height="40" as="geometry"/>
                </mxCell>
                <mxCell id="115" value="Gen AI Tool&lt;br&gt;Stackspot/Copilot" style="rounded=1;whiteSpace=wrap;html=1;labelBackgroundColor=#FFFFFF;fontColor=#000000;verticalAlign=bottom;" parent="114" vertex="1">
                    <mxGeometry width="160" height="40" as="geometry"/>
                </mxCell>
                <mxCell id="116" value="" style="ellipse;whiteSpace=wrap;html=1;aspect=fixed;labelBackgroundColor=#FFFFFF;fillColor=#B3B3B3;strokeColor=#36393d;" parent="114" vertex="1">
                    <mxGeometry x="2" y="2" width="10" height="10" as="geometry"/>
                </mxCell>
                <mxCell id="117" value="" style="group" parent="1" vertex="1" connectable="0">
                    <mxGeometry x="251" y="680" width="160" height="40" as="geometry"/>
                </mxCell>
                <mxCell id="118" value="DataMesh" style="rounded=1;whiteSpace=wrap;html=1;labelBackgroundColor=#FFFFFF;fontColor=#000000;verticalAlign=bottom;" parent="117" vertex="1">
                    <mxGeometry width="160" height="40" as="geometry"/>
                </mxCell>
                <mxCell id="119" value="" style="ellipse;whiteSpace=wrap;html=1;aspect=fixed;labelBackgroundColor=#FFFFFF;fillColor=#B3B3B3;strokeColor=#36393d;" parent="117" vertex="1">
                    <mxGeometry x="2" y="2" width="10" height="10" as="geometry"/>
                </mxCell>
                <mxCell id="120" value="" style="group" parent="1" vertex="1" connectable="0">
                    <mxGeometry x="81" y="680" width="160" height="40" as="geometry"/>
                </mxCell>
                <mxCell id="121" value="Log Analytics" style="rounded=1;whiteSpace=wrap;html=1;labelBackgroundColor=#FFFFFF;fontColor=#000000;verticalAlign=bottom;" parent="120" vertex="1">
                    <mxGeometry width="160" height="40" as="geometry"/>
                </mxCell>
                <mxCell id="122" value="" style="ellipse;whiteSpace=wrap;html=1;aspect=fixed;labelBackgroundColor=#FFFFFF;fillColor=#B3B3B3;strokeColor=#36393d;" parent="120" vertex="1">
                    <mxGeometry x="2" y="2" width="10" height="10" as="geometry"/>
                </mxCell>
                <mxCell id="123" value="" style="group" parent="1" vertex="1" connectable="0">
                    <mxGeometry x="81" y="726" width="160" height="40" as="geometry"/>
                </mxCell>
                <mxCell id="124" value="Performance Monitor" style="rounded=1;whiteSpace=wrap;html=1;labelBackgroundColor=#FFFFFF;fontColor=#000000;verticalAlign=bottom;" parent="123" vertex="1">
                    <mxGeometry width="160" height="40" as="geometry"/>
                </mxCell>
                <mxCell id="125" value="" style="ellipse;whiteSpace=wrap;html=1;aspect=fixed;labelBackgroundColor=#FFFFFF;fillColor=#B3B3B3;strokeColor=#36393d;" parent="123" vertex="1">
                    <mxGeometry x="2" y="2" width="10" height="10" as="geometry"/>
                </mxCell>
                <mxCell id="126" value="" style="group" parent="1" vertex="1" connectable="0">
                    <mxGeometry x="86" y="520" width="160" height="40" as="geometry"/>
                </mxCell>
                <mxCell id="127" value="AutomaÃ§Ã£o de Backup" style="rounded=1;whiteSpace=wrap;html=1;labelBackgroundColor=#FFFFFF;fontColor=#000000;verticalAlign=bottom;" parent="126" vertex="1">
                    <mxGeometry width="160" height="40" as="geometry"/>
                </mxCell>
                <mxCell id="128" value="" style="ellipse;whiteSpace=wrap;html=1;aspect=fixed;labelBackgroundColor=#FFFFFF;fillColor=#B3B3B3;strokeColor=#36393d;" parent="126" vertex="1">
                    <mxGeometry x="2" y="2" width="10" height="10" as="geometry"/>
                </mxCell>
                <mxCell id="129" value="" style="group" parent="1" vertex="1" connectable="0">
                    <mxGeometry x="266" y="520" width="160" height="40" as="geometry"/>
                </mxCell>
                <mxCell id="130" value="IntegraÃ§Ã£o CMDB" style="rounded=1;whiteSpace=wrap;html=1;labelBackgroundColor=#FFFFFF;fontColor=#000000;verticalAlign=bottom;" parent="129" vertex="1">
                    <mxGeometry width="160" height="40" as="geometry"/>
                </mxCell>
                <mxCell id="131" value="" style="ellipse;whiteSpace=wrap;html=1;aspect=fixed;labelBackgroundColor=#FFFFFF;fillColor=#B3B3B3;strokeColor=#36393d;" parent="129" vertex="1">
                    <mxGeometry x="2" y="2" width="10" height="10" as="geometry"/>
                </mxCell>
                <mxCell id="132" value="" style="group" parent="1" vertex="1" connectable="0">
                    <mxGeometry x="86" y="570" width="160" height="40" as="geometry"/>
                </mxCell>
                <mxCell id="133" value="IUConfia" style="rounded=1;whiteSpace=wrap;html=1;labelBackgroundColor=#FFFFFF;fontColor=#000000;verticalAlign=bottom;" parent="132" vertex="1">
                    <mxGeometry width="160" height="40" as="geometry"/>
                </mxCell>
                <mxCell id="134" value="" style="ellipse;whiteSpace=wrap;html=1;aspect=fixed;labelBackgroundColor=#FFFFFF;fillColor=#B3B3B3;strokeColor=#36393d;" parent="132" vertex="1">
                    <mxGeometry x="2" y="2" width="10" height="10" as="geometry"/>
                </mxCell>
                <mxCell id="135" value="" style="group" parent="1" vertex="1" connectable="0">
                    <mxGeometry x="266" y="570" width="160" height="40" as="geometry"/>
                </mxCell>
                <mxCell id="136" value="IntegraÃ§Ã£o ITSM&amp;nbsp;" style="rounded=1;whiteSpace=wrap;html=1;labelBackgroundColor=#FFFFFF;fontColor=#000000;verticalAlign=bottom;" parent="135" vertex="1">
                    <mxGeometry width="160" height="40" as="geometry"/>
                </mxCell>
                <mxCell id="137" value="" style="ellipse;whiteSpace=wrap;html=1;aspect=fixed;labelBackgroundColor=#FFFFFF;fillColor=#B3B3B3;strokeColor=#36393d;" parent="135" vertex="1">
                    <mxGeometry x="2" y="2" width="10" height="10" as="geometry"/>
                </mxCell>
                <mxCell id="138" value="" style="outlineConnect=0;fontColor=#232F3E;gradientColor=none;fillColor=#5A30B5;strokeColor=none;dashed=0;verticalLabelPosition=bottom;verticalAlign=top;align=center;html=1;fontSize=12;fontStyle=0;aspect=fixed;pointerEvents=1;shape=mxgraph.aws4.data_lake_resource_icon;labelBackgroundColor=#FFFFFF;" parent="1" vertex="1">
                    <mxGeometry x="95" y="632.5" width="38" height="38" as="geometry"/>
                </mxCell>
                <mxCell id="139" value="" style="aspect=fixed;html=1;points=[];align=center;image;fontSize=12;image=img/lib/mscae/Identity_Governance.svg;labelBackgroundColor=#FFFFFF;fillColor=#FFFFFF;" parent="1" vertex="1">
                    <mxGeometry x="130" y="473" width="40" height="40" as="geometry"/>
                </mxCell>
                <mxCell id="140" value="" style="group;verticalAlign=bottom;" parent="1" vertex="1" connectable="0">
                    <mxGeometry x="1100" y="105" width="160" height="40" as="geometry"/>
                </mxCell>
                <mxCell id="141" value="Container" style="rounded=1;whiteSpace=wrap;html=1;labelBackgroundColor=#FFFFFF;fontColor=#000000;verticalAlign=bottom;" parent="140" vertex="1">
                    <mxGeometry width="160" height="40" as="geometry"/>
                </mxCell>
                <mxCell id="142" value="" style="ellipse;whiteSpace=wrap;html=1;aspect=fixed;labelBackgroundColor=#FFFFFF;fillColor=#B3B3B3;strokeColor=#36393d;" parent="140" vertex="1">
                    <mxGeometry x="2" y="2" width="10" height="10" as="geometry"/>
                </mxCell>
                <mxCell id="143" value="" style="group;verticalAlign=bottom;" parent="1" vertex="1" connectable="0">
                    <mxGeometry x="1280" y="105" width="160" height="40" as="geometry"/>
                </mxCell>
                <mxCell id="144" value="Api Gateway" style="rounded=1;whiteSpace=wrap;html=1;labelBackgroundColor=#FFFFFF;fontColor=#000000;verticalAlign=bottom;" parent="143" vertex="1">
                    <mxGeometry width="160" height="40" as="geometry"/>
                </mxCell>
                <mxCell id="145" value="" style="ellipse;whiteSpace=wrap;html=1;aspect=fixed;labelBackgroundColor=#FFFFFF;fillColor=#B3B3B3;strokeColor=#36393d;" parent="143" vertex="1">
                    <mxGeometry x="2" y="2" width="10" height="10" as="geometry"/>
                </mxCell>
                <mxCell id="146" value="" style="group;verticalAlign=bottom;" parent="1" vertex="1" connectable="0">
                    <mxGeometry x="1100" y="160" width="160" height="40" as="geometry"/>
                </mxCell>
                <mxCell id="147" value="Serverless&amp;nbsp;" style="rounded=1;whiteSpace=wrap;html=1;labelBackgroundColor=#FFFFFF;fontColor=#000000;verticalAlign=bottom;" parent="146" vertex="1">
                    <mxGeometry width="160" height="40" as="geometry"/>
                </mxCell>
                <mxCell id="148" value="" style="ellipse;whiteSpace=wrap;html=1;aspect=fixed;labelBackgroundColor=#FFFFFF;fillColor=#B3B3B3;strokeColor=#36393d;" parent="146" vertex="1">
                    <mxGeometry x="2" y="2" width="10" height="10" as="geometry"/>
                </mxCell>
                <mxCell id="149" value="" style="group;verticalAlign=bottom;" parent="1" vertex="1" connectable="0">
                    <mxGeometry x="1280" y="160" width="160" height="40" as="geometry"/>
                </mxCell>
                <mxCell id="150" value="SQL DataBase" style="rounded=1;whiteSpace=wrap;html=1;labelBackgroundColor=#FFFFFF;fontColor=#000000;verticalAlign=bottom;" parent="149" vertex="1">
                    <mxGeometry width="160" height="40" as="geometry"/>
                </mxCell>
                <mxCell id="151" value="" style="ellipse;whiteSpace=wrap;html=1;aspect=fixed;labelBackgroundColor=#FFFFFF;fillColor=#B3B3B3;strokeColor=#36393d;" parent="149" vertex="1">
                    <mxGeometry x="2" y="2" width="10" height="10" as="geometry"/>
                </mxCell>
                <mxCell id="152" value="" style="group;verticalAlign=bottom;" parent="1" vertex="1" connectable="0">
                    <mxGeometry x="1280" y="210" width="160" height="40" as="geometry"/>
                </mxCell>
                <mxCell id="153" value="NoSQL DataBase" style="rounded=1;whiteSpace=wrap;html=1;labelBackgroundColor=#FFFFFF;fontColor=#000000;verticalAlign=bottom;" parent="152" vertex="1">
                    <mxGeometry width="160" height="40" as="geometry"/>
                </mxCell>
                <mxCell id="154" value="" style="ellipse;whiteSpace=wrap;html=1;aspect=fixed;labelBackgroundColor=#FFFFFF;fillColor=#B3B3B3;strokeColor=#36393d;" parent="152" vertex="1">
                    <mxGeometry x="2" y="2" width="10" height="10" as="geometry"/>
                </mxCell>
                <mxCell id="155" value="Fi" style="group;verticalAlign=bottom;" parent="1" vertex="1" connectable="0">
                    <mxGeometry x="1100" y="210" width="160" height="40" as="geometry"/>
                </mxCell>
                <mxCell id="156" value="Fila e Topico" style="rounded=1;whiteSpace=wrap;html=1;labelBackgroundColor=#FFFFFF;fontColor=#000000;verticalAlign=bottom;" parent="155" vertex="1">
                    <mxGeometry width="160" height="40" as="geometry"/>
                </mxCell>
                <mxCell id="157" value="" style="ellipse;whiteSpace=wrap;html=1;aspect=fixed;labelBackgroundColor=#FFFFFF;fillColor=#B3B3B3;strokeColor=#36393d;" parent="155" vertex="1">
                    <mxGeometry x="2" y="2" width="10" height="10" as="geometry"/>
                </mxCell>
                <mxCell id="158" value="Fi" style="group;verticalAlign=bottom;" parent="1" vertex="1" connectable="0">
                    <mxGeometry x="1100" y="260" width="160" height="40" as="geometry"/>
                </mxCell>
                <mxCell id="159" value="NotificaÃ§Ã£o" style="rounded=1;whiteSpace=wrap;html=1;labelBackgroundColor=#FFFFFF;fontColor=#000000;verticalAlign=bottom;" parent="158" vertex="1">
                    <mxGeometry width="160" height="40" as="geometry"/>
                </mxCell>
                <mxCell id="160" value="" style="ellipse;whiteSpace=wrap;html=1;aspect=fixed;labelBackgroundColor=#FFFFFF;fillColor=#B3B3B3;strokeColor=#36393d;" parent="158" vertex="1">
                    <mxGeometry x="2" y="2" width="10" height="10" as="geometry"/>
                </mxCell>
                <mxCell id="161" value="Tr" style="group;verticalAlign=bottom;" parent="1" vertex="1" connectable="0">
                    <mxGeometry x="1280" y="314" width="160" height="40" as="geometry"/>
                </mxCell>
                <mxCell id="162" value="Transferencia Arquivos" style="rounded=1;whiteSpace=wrap;html=1;labelBackgroundColor=#FFFFFF;fontColor=#000000;verticalAlign=bottom;" parent="161" vertex="1">
                    <mxGeometry width="160" height="40" as="geometry"/>
                </mxCell>
                <mxCell id="163" value="" style="ellipse;whiteSpace=wrap;html=1;aspect=fixed;labelBackgroundColor=#FFFFFF;fillColor=#B3B3B3;strokeColor=#36393d;" parent="161" vertex="1">
                    <mxGeometry x="2" y="2" width="10" height="10" as="geometry"/>
                </mxCell>
                <mxCell id="164" value="" style="group;verticalAlign=bottom;" parent="1" vertex="1" connectable="0">
                    <mxGeometry x="1280" y="260" width="160" height="40" as="geometry"/>
                </mxCell>
                <mxCell id="165" value="DocumentDB" style="rounded=1;whiteSpace=wrap;html=1;labelBackgroundColor=#FFFFFF;fontColor=#000000;verticalAlign=bottom;" parent="164" vertex="1">
                    <mxGeometry width="160" height="40" as="geometry"/>
                </mxCell>
                <mxCell id="166" value="" style="ellipse;whiteSpace=wrap;html=1;aspect=fixed;labelBackgroundColor=#FFFFFF;fillColor=#B3B3B3;strokeColor=#36393d;" parent="164" vertex="1">
                    <mxGeometry x="2" y="2" width="10" height="10" as="geometry"/>
                </mxCell>
                <mxCell id="167" value="" style="group" parent="1" vertex="1" connectable="0">
                    <mxGeometry x="280" y="414" width="160" height="40" as="geometry"/>
                </mxCell>
                <mxCell id="168" value="Services MetaData" style="rounded=1;whiteSpace=wrap;html=1;labelBackgroundColor=#FFFFFF;fontColor=#000000;verticalAlign=bottom;" parent="167" vertex="1">
                    <mxGeometry width="160" height="40" as="geometry"/>
                </mxCell>
                <mxCell id="169" value="" style="ellipse;whiteSpace=wrap;html=1;aspect=fixed;labelBackgroundColor=#FFFFFF;fillColor=#ffff88;strokeColor=#36393d;" parent="167" vertex="1">
                    <mxGeometry x="2" y="2" width="10" height="10" as="geometry"/>
                </mxCell>
                <mxCell id="170" value="" style="group" parent="1" vertex="1" connectable="0">
                    <mxGeometry x="699.5" y="80" width="160" height="40" as="geometry"/>
                </mxCell>
                <mxCell id="171" value="" style="group;fillColor=#b1ddf0;strokeColor=#10739e;" parent="170" vertex="1" connectable="0">
                    <mxGeometry width="160" height="40" as="geometry"/>
                </mxCell>
                <mxCell id="172" value="ElevaÃ§Ã£o de Privilegio &lt;br&gt;Just in time" style="rounded=1;whiteSpace=wrap;html=1;labelBackgroundColor=#FFFFFF;verticalAlign=bottom;fillColor=#b1ddf0;strokeColor=#10739e;" parent="171" vertex="1">
                    <mxGeometry width="160" height="40" as="geometry"/>
                </mxCell>
                <mxCell id="173" value="" style="ellipse;whiteSpace=wrap;html=1;aspect=fixed;labelBackgroundColor=#FFFFFF;fillColor=#0050ef;strokeColor=#001DBC;fontColor=#ffffff;" parent="171" vertex="1">
                    <mxGeometry x="2" y="2" width="10" height="10" as="geometry"/>
                </mxCell>
                <mxCell id="174" value="" style="group;verticalAlign=bottom;" parent="1" vertex="1" connectable="0">
                    <mxGeometry x="190" y="182" width="160" height="40" as="geometry"/>
                </mxCell>
                <mxCell id="175" value="" style="group" parent="174" vertex="1" connectable="0">
                    <mxGeometry width="160" height="40" as="geometry"/>
                </mxCell>
                <mxCell id="176" value="CloudSecOps (SOC)" style="rounded=1;whiteSpace=wrap;html=1;labelBackgroundColor=#FFFFFF;fontColor=#000000;verticalAlign=bottom;" parent="175" vertex="1">
                    <mxGeometry width="160" height="40" as="geometry"/>
                </mxCell>
                <mxCell id="177" value="" style="ellipse;whiteSpace=wrap;html=1;aspect=fixed;labelBackgroundColor=#FFFFFF;fillColor=#B3B3B3;strokeColor=#36393d;" parent="175" vertex="1">
                    <mxGeometry x="2" y="2" width="10" height="10" as="geometry"/>
                </mxCell>
            </root>
        </mxGraphModel>
    </diagram>
</mxfile>